<svg width="72" height="72" viewBox="0 0 72 72" fill="none" xmlns="http://www.w3.org/2000/svg">
<g clip-path="url(#clip0_680_146)">
<mask id="mask0_680_146" style="mask-type:luminance" maskUnits="userSpaceOnUse" x="-18" y="0" width="83" height="78">
<path d="M-18 77.5891H64.6667V9.77516e-06H-18V77.5891Z" fill="white"/>
</mask>
<g mask="url(#mask0_680_146)">
<mask id="mask1_680_146" style="mask-type:luminance" maskUnits="userSpaceOnUse" x="-18" y="-48" width="147" height="146">
<path d="M-18 97.3151H128.667V-47.3425H-18V97.3151Z" fill="white"/>
</mask>
<g mask="url(#mask1_680_146)">
<path d="M21.8324 13.5998L20.6562 52.726C20.6562 52.726 60.6543 41.4763 19.951 33.1024C-20.7523 24.7284 42.3004 34.0875 47.2947 18.2016C52.2889 2.31576 32.0874 48.2572 32.0874 48.2572C32.0874 48.2572 29.8807 60.1011 39.186 49.0574C48.4914 38.0136 51.4569 26.0622 51.4569 26.0622C51.4569 26.0622 42.8583 62.2245 52.998 40.7044C63.1377 19.1844 56.7802 17.2794 56.7308 27.8408C56.6814 38.4023 47.7227 75.901 58.3858 57.0364" stroke="black" stroke-width="1.33333" stroke-linejoin="round"/>
<path d="M20.8405 59.3822L20.4405 57.3464H20.4245L20.0245 59.3822H20.8405ZM18.8245 61.3469L20.0965 55.7289H20.7765L22.0485 61.3469H21.2325L20.9925 60.1396H19.8805L19.6405 61.3469H18.8245Z" fill="black"/>
<path d="M22.4006 61.3469V57.3464H24.8406V61.3469H24.0246V58.0171H23.2166V61.3469H22.4006Z" fill="black"/>
<path d="M27.0245 61.3468V60.9365H27.0085C26.9018 61.0838 26.7938 61.1969 26.6845 61.2758C26.5752 61.3547 26.4218 61.3942 26.2245 61.3942C26.1285 61.3942 26.0312 61.3797 25.9325 61.3508C25.8338 61.3218 25.7391 61.2679 25.6485 61.189C25.5578 61.1154 25.4845 61.0088 25.4285 60.8695C25.3725 60.7301 25.3445 60.5499 25.3445 60.329C25.3445 60.1028 25.3631 59.9042 25.4005 59.7332C25.4378 59.5623 25.5072 59.4189 25.6085 59.3032C25.7045 59.1927 25.8351 59.1099 26.0005 59.0547C26.1658 58.9994 26.3765 58.9718 26.6325 58.9718C26.6591 58.9718 26.6885 58.9718 26.7205 58.9718C26.7525 58.9718 26.7818 58.9744 26.8085 58.9797C26.8351 58.985 26.8672 58.9876 26.9045 58.9876C26.9418 58.9876 26.9818 58.9902 27.0245 58.9955V58.5773C27.0245 58.4405 26.9951 58.3274 26.9365 58.238C26.8778 58.1486 26.7712 58.1039 26.6165 58.1039C26.5098 58.1039 26.4125 58.1381 26.3245 58.2064C26.2365 58.2748 26.1791 58.3748 26.1525 58.5063H25.3605C25.3818 58.1486 25.5045 57.8593 25.7285 57.6383C25.8352 57.5331 25.9631 57.4503 26.1125 57.3898C26.2618 57.3293 26.4298 57.299 26.6165 57.299C26.7872 57.299 26.9471 57.3253 27.0965 57.3779C27.2458 57.4305 27.3765 57.5095 27.4885 57.6147C27.5952 57.7199 27.6805 57.8514 27.7445 58.0092C27.8085 58.167 27.8405 58.3511 27.8405 58.5615V61.3468H27.0245ZM27.0245 59.6267C26.9338 59.6109 26.8591 59.603 26.8005 59.603C26.6245 59.603 26.4738 59.6438 26.3485 59.7253C26.2232 59.8069 26.1605 59.9555 26.1605 60.1712C26.1605 60.3237 26.1978 60.4473 26.2725 60.542C26.3471 60.6367 26.4511 60.684 26.5845 60.684C26.7231 60.684 26.8311 60.6393 26.9085 60.5499C26.9858 60.4605 27.0245 60.3342 27.0245 60.1712V59.6267Z" fill="black"/>
<path d="M28.4404 62.9644V57.3464H29.2564V57.7093C29.3578 57.5936 29.4618 57.4963 29.5684 57.4174C29.6751 57.3385 29.8298 57.299 30.0324 57.299C30.3684 57.299 30.6058 57.4253 30.7444 57.6778C30.7924 57.7672 30.8271 57.8777 30.8484 58.0092C30.8698 58.1407 30.8804 58.3169 30.8804 58.5378V60.0607C30.8804 60.3553 30.8724 60.5683 30.8564 60.6998C30.8244 60.9628 30.7018 61.1601 30.4884 61.2916C30.3818 61.36 30.2271 61.3942 30.0244 61.3942C29.8644 61.3942 29.7218 61.3587 29.5964 61.2876C29.4711 61.2166 29.3631 61.1154 29.2724 60.9839H29.2564V62.9644H28.4404ZM30.0644 58.6483C30.0644 58.4852 30.0324 58.3537 29.9684 58.2538C29.9044 58.1538 29.8031 58.1039 29.6644 58.1039C29.5418 58.1039 29.4431 58.1499 29.3684 58.2419C29.2938 58.334 29.2564 58.4537 29.2564 58.601V60.1554C29.2564 60.2816 29.2951 60.3855 29.3724 60.467C29.4498 60.5486 29.5471 60.5893 29.6644 60.5893C29.8191 60.5893 29.9244 60.542 29.9804 60.4473C30.0364 60.3526 30.0644 60.2422 30.0644 60.1159V58.6483Z" fill="black"/>
<path d="M31.9765 61.3469V58.0566H31.1765V57.3464H33.5925V58.0566H32.7925V61.3469H31.9765Z" fill="black"/>
<path d="M33.7847 59.5636H36.1927V58.7588H33.7847V59.5636Z" fill="black"/>
<path d="M36.8806 57.0544C36.8806 56.8282 36.9206 56.6284 37.0006 56.4548C37.0806 56.2812 37.1873 56.1365 37.3206 56.0208C37.4486 55.9103 37.594 55.8262 37.7566 55.7683C37.9193 55.7104 38.0833 55.6815 38.2486 55.6815C38.4139 55.6815 38.5779 55.7104 38.7406 55.7683C38.9033 55.8262 39.0513 55.9103 39.1846 56.0208C39.3126 56.1365 39.4166 56.2812 39.4966 56.4548C39.5766 56.6284 39.6166 56.8282 39.6166 57.0544V60.0212C39.6166 60.2579 39.5766 60.4605 39.4966 60.6288C39.4166 60.7971 39.3126 60.9365 39.1846 61.047C39.0513 61.1627 38.9033 61.2495 38.7406 61.3074C38.5779 61.3652 38.4139 61.3942 38.2486 61.3942C38.0833 61.3942 37.9193 61.3652 37.7566 61.3074C37.594 61.2495 37.4486 61.1627 37.3206 61.047C37.1873 60.9365 37.0806 60.7971 37.0006 60.6288C36.9206 60.4605 36.8806 60.2579 36.8806 60.0212V57.0544ZM37.6966 60.0212C37.6966 60.2159 37.7513 60.3592 37.8606 60.4513C37.9699 60.5433 38.0993 60.5893 38.2486 60.5893C38.3979 60.5893 38.5273 60.5433 38.6366 60.4513C38.746 60.3592 38.8006 60.2159 38.8006 60.0212V57.0544C38.8006 56.8598 38.746 56.7165 38.6366 56.6244C38.5273 56.5324 38.3979 56.4863 38.2486 56.4863C38.0993 56.4863 37.9699 56.5324 37.8606 56.6244C37.7513 56.7165 37.6966 56.8598 37.6966 57.0544V60.0212Z" fill="black"/>
<path d="M40.7526 61.3469V58.0566H39.9526V57.3464H42.3686V58.0566H41.5686V61.3469H40.7526Z" fill="black"/>
<path d="M45.0646 59.6504H43.4486V60.1948C43.4486 60.3211 43.4846 60.4184 43.5566 60.4868C43.6286 60.5552 43.7259 60.5893 43.8486 60.5893C44.0032 60.5893 44.1059 60.5446 44.1566 60.4552C44.2072 60.3658 44.2379 60.2764 44.2486 60.1869H45.0646C45.0646 60.5394 44.9552 60.8234 44.7366 61.0391C44.6299 61.1496 44.5019 61.2364 44.3526 61.2995C44.2032 61.3626 44.0352 61.3942 43.8486 61.3942C43.5926 61.3942 43.3752 61.3416 43.1966 61.2364C43.0179 61.1312 42.8806 60.9918 42.7846 60.8182C42.7259 60.713 42.6859 60.592 42.6646 60.4552C42.6432 60.3184 42.6326 60.1685 42.6326 60.0055V58.6878C42.6326 58.5247 42.6432 58.3748 42.6646 58.238C42.6859 58.1012 42.7259 57.9802 42.7846 57.875C42.8806 57.7015 43.0179 57.5621 43.1966 57.4569C43.3752 57.3516 43.5926 57.299 43.8486 57.299C44.0352 57.299 44.2046 57.3306 44.3566 57.3937C44.5086 57.4568 44.6379 57.5436 44.7446 57.6541C44.9579 57.8908 45.0646 58.188 45.0646 58.5457V59.6504ZM43.4486 59.0192H44.2486V58.5615C44.2486 58.409 44.2126 58.2945 44.1406 58.2183C44.0686 58.142 43.9712 58.1039 43.8486 58.1039C43.7259 58.1039 43.6286 58.142 43.5566 58.2183C43.4846 58.2945 43.4486 58.409 43.4486 58.5615V59.0192Z" fill="black"/>
<path d="M45.3444 60.5894C45.4031 60.5894 45.4631 60.5736 45.5244 60.542C45.5858 60.5105 45.6484 60.4552 45.7124 60.3763C45.7658 60.3132 45.8084 60.2225 45.8404 60.1041C45.8724 59.9858 45.8964 59.8622 45.9124 59.7333C45.9284 59.6044 45.9391 59.4808 45.9444 59.3624C45.9498 59.2441 45.9524 59.1533 45.9524 59.0902V57.3464H48.1924V61.3469H47.3764V58.0171H46.7204V58.7588C46.7204 58.9429 46.7151 59.1283 46.7044 59.3151C46.6938 59.5018 46.6764 59.6807 46.6524 59.8516C46.6284 60.0226 46.5978 60.1817 46.5604 60.329C46.5231 60.4763 46.4751 60.6025 46.4164 60.7077C46.3044 60.9129 46.1578 61.0707 45.9764 61.1812C45.7951 61.2916 45.5898 61.3469 45.3604 61.3469H45.3044V60.5894H45.3444Z" fill="black"/>
<path d="M48.8645 61.3469V57.3464H49.6805V58.9245H49.9125C50.1258 58.9245 50.3152 58.9442 50.4805 58.9837C50.6458 59.0231 50.7858 59.0902 50.9005 59.1849C51.0152 59.2796 51.1018 59.4058 51.1605 59.5636C51.2192 59.7214 51.2485 59.9161 51.2485 60.1475C51.2485 60.3158 51.2232 60.4776 51.1725 60.6328C51.1218 60.788 51.0432 60.9208 50.9365 61.0312C50.8085 61.1628 50.6512 61.2482 50.4645 61.2877C50.2778 61.3271 50.0965 61.3469 49.9205 61.3469H48.8645ZM49.6805 60.6762H49.9925C50.1098 60.6762 50.2152 60.638 50.3085 60.5618C50.4018 60.4855 50.4485 60.3474 50.4485 60.1475C50.4485 59.9845 50.4178 59.8516 50.3565 59.7491C50.2952 59.6465 50.1685 59.5952 49.9765 59.5952H49.6805V60.6762Z" fill="black"/>
<path d="M32.5398 13.5998L25.2255 14.9019C25.2255 14.9019 26.9344 17.171 25.0653 18.1101C23.1961 19.0491 31.6961 15.021 30.7118 21.8561C29.7275 28.6911 23.3532 27.4337 23.762 24.5354" stroke="black" stroke-width="1.33333" stroke-linejoin="round"/>
<path d="M41.3367 11.7205L34.0224 13.0227C34.0224 13.0227 35.7313 15.2918 33.8621 16.2308C31.993 17.1698 40.493 13.1418 39.5087 19.9768C38.5244 26.8118 32.1501 25.5545 32.5589 22.6561" stroke="black" stroke-width="1.33333" stroke-linejoin="round"/>
</g>
</g>
</g>
<defs>
<clipPath id="clip0_680_146">
<rect width="72" height="72" fill="white"/>
</clipPath>
</defs>
</svg>
