<svg width="158" height="122" viewBox="0 0 158 122" fill="none" xmlns="http://www.w3.org/2000/svg">
<path fill-rule="evenodd" clip-rule="evenodd" d="M55.6487 -18.4186C58.8957 -19.2399 61.2135 -20.5329 62.646 -22.0737C64.092 -23.629 64.6376 -25.4527 64.2331 -27.1717C63.4234 -30.6122 59.1944 -32.7051 53.7815 -31.7815C37.4179 -28.9893 15.3186 -21.5238 -5.32315 0.999882C-15.8871 12.527 -24.0042 27.7963 -28.3813 43.6303C-32.7569 59.4586 -33.4176 75.9353 -28.9643 89.8601C-25.5217 100.625 -17.4052 109.303 -8.06505 114.785C1.2604 120.259 11.9528 122.631 20.6329 120.585C29.2144 118.562 37.7239 113.19 43.7798 106.177C49.8328 99.1671 53.5297 90.3993 52.2352 81.5798C49.7179 64.4295 41.1789 53.6151 30.3208 49.4944C22.9618 46.7016 16.1797 46.8328 11.4275 47.055C11.075 47.0715 10.7371 47.0882 10.4133 47.1042L10.4106 47.1043H10.4106C8.495 47.1988 7.07852 47.2687 6.11385 47.1289C5.55153 47.0474 5.3585 46.9185 5.30786 46.8667C5.29568 46.8543 5.28541 46.8417 5.27621 46.8026C5.26442 46.7524 5.25248 46.6431 5.28537 46.4459C5.36036 45.9964 5.43921 45.5108 5.52348 44.9918L5.52396 44.9889C7.81542 30.8768 14.1139 -7.91222 55.6487 -18.4186ZM54.1179 -29.81C59.0823 -30.6571 61.8356 -28.6285 62.2863 -26.7136C62.5119 -25.7549 62.257 -24.5925 61.1813 -23.4355C60.0921 -22.264 58.1666 -21.1185 55.1583 -20.3575C12.3185 -9.52108 5.83554 30.5406 3.5569 44.6215L3.55677 44.6223C3.46986 45.1593 3.38908 45.6585 3.31262 46.1169C3.18306 46.8936 3.29789 47.672 3.87806 48.2652C4.39849 48.7973 5.1377 49.0083 5.82698 49.1082C7.00174 49.2785 8.65788 49.1954 10.5398 49.101H10.5399C10.8607 49.0848 11.1882 49.0684 11.5209 49.0529C16.2161 48.8333 22.6536 48.7238 29.6112 51.3643C39.6281 55.1658 47.8164 65.2467 50.2564 81.8702C51.4405 89.9377 48.0746 98.143 42.266 104.87C36.4604 111.593 28.3093 116.721 20.1741 118.639C12.1375 120.533 1.97434 118.359 -7.05263 113.06C-16.0649 107.77 -23.7977 99.4496 -27.0594 89.2509C-31.3628 75.7947 -30.757 59.7303 -26.4536 44.1632C-22.1519 28.6019 -14.1776 13.6218 -3.84868 2.35116C16.4233 -19.7691 38.078 -27.073 54.1179 -29.81ZM148.913 -18.4186C152.16 -19.2399 154.478 -20.5329 155.911 -22.0737C157.357 -23.629 157.902 -25.4527 157.498 -27.1717C156.688 -30.6122 152.459 -32.7051 147.046 -31.7815C130.683 -28.9893 108.583 -21.5238 87.9415 0.999882C77.3775 12.527 69.2605 27.7963 64.8833 43.6303C60.5078 59.4586 59.847 75.9353 64.3003 89.8601C67.743 100.625 75.8594 109.303 85.1996 114.785C94.525 120.259 105.217 122.631 113.898 120.585C122.479 118.562 130.988 113.19 137.044 106.177C143.097 99.1671 146.794 90.3993 145.5 81.5798C142.982 64.4295 134.444 53.6151 123.585 49.4944C116.226 46.7016 109.444 46.8328 104.692 47.055C104.34 47.0715 104.002 47.0882 103.679 47.1041L103.675 47.1043C101.76 47.1988 100.343 47.2687 99.3785 47.1289C98.8162 47.0474 98.6231 46.9185 98.5725 46.8667C98.5603 46.8543 98.55 46.8417 98.5408 46.8026C98.5291 46.7524 98.5171 46.6431 98.55 46.4459C98.6251 45.9955 98.7041 45.509 98.7886 44.9889C101.08 30.8768 107.379 -7.91222 148.913 -18.4186ZM147.383 -29.81C152.347 -30.6571 155.1 -28.6285 155.551 -26.7136C155.777 -25.7549 155.522 -24.5925 154.446 -23.4355C153.357 -22.264 151.431 -21.1185 148.423 -20.3575C105.583 -9.52108 99.1002 30.5406 96.8215 44.6215C96.7346 45.1588 96.6538 45.6583 96.5773 46.1169C96.4477 46.8936 96.5625 47.672 97.1427 48.2652C97.6631 48.7973 98.4023 49.0083 99.0916 49.1082C100.266 49.2785 101.923 49.1954 103.804 49.101H103.805C104.125 49.0848 104.453 49.0684 104.786 49.0529C109.481 48.8333 115.918 48.7238 122.876 51.3643C132.893 55.1658 141.081 65.2467 143.521 81.8702C144.705 89.9377 141.339 98.143 135.531 104.87C129.725 111.593 121.574 116.721 113.439 118.639C105.402 120.533 95.239 118.359 86.212 113.06C77.1998 107.77 69.4669 99.4496 66.2053 89.2509C61.9019 75.7947 62.5077 59.7303 66.811 44.1632C71.1128 28.6019 79.087 13.6218 89.416 2.35116C109.688 -19.7691 131.343 -27.073 147.383 -29.81Z" fill="#B2AFAC" fill-opacity="0.5"/>
</svg>
